<svg xmlns="http://www.w3.org/2000/svg" viewBox="0 0 64 64">
  <defs>
    <linearGradient id="bg" x1="0" y1="0" x2="1" y2="1">
      <stop offset="0%" stop-color="#005bc1" />
      <stop offset="100%" stop-color="#8bc0ff" />
    </linearGradient>
  </defs>
  <rect x="4" y="4" width="56" height="56" rx="16" fill="#0e0e0e" />
  <rect x="6" y="6" width="52" height="52" rx="14" fill="url(#bg)" />
  <path
    d="M20 22c0-6.6 5.4-12 12-12s12 5.4 12 12v10c0 6.6-5.4 12-12 12s-12-5.4-12-12V22zm12-8a8 8 0 0 0-8 8v10a8 8 0 1 0 16 0V22a8 8 0 0 0-8-8z"
    fill="#ffffff"
  />
  <path d="M32 45c-7.7 0-14-6.3-14-14h4c0 5.5 4.5 10 10 10s10-4.5 10-10h4c0 7.7-6.3 14-14 14z" fill="#e6f2ff" />
  <rect x="30" y="45" width="4" height="9" rx="2" fill="#ffffff" />
  <circle cx="49" cy="17" r="4" fill="#ffffff" />
</svg>
